HIERARCHY
ROOT root
{
	OFFSET 0.000000 0.000000 0.000000
	CHANNELS 6 Xposition Yposition Zposition Zrotation Yrotation Xrotation
	JOINT lhip
	{
		OFFSET 0.058581 -0.082280 -0.017664
		CHANNELS 3 Zrotation Yrotation Xrotation
		JOINT lknee
		{
			OFFSET 0.043451 -0.386469 0.008037
			CHANNELS 3 Zrotation Yrotation Xrotation
			JOINT lankle
			{
				OFFSET -0.014790 -0.426874 -0.037428
				CHANNELS 3 Zrotation Yrotation Xrotation
				JOINT ltoe
				{
					OFFSET 0.041054 -0.060286 0.122042
					CHANNELS 3 Zrotation Yrotation Xrotation
					End Site
					{
						OFFSET 0.000000 0.000000 0.000000
					}
				}
			}
		}
	}
	JOINT rhip
	{
		OFFSET -0.060310 -0.090513 -0.013543
		CHANNELS 3 Zrotation Yrotation Xrotation
		JOINT rknee
		{
			OFFSET -0.043257 -0.383688 -0.004843
			CHANNELS 3 Zrotation Yrotation Xrotation
			JOINT rankle
			{
				OFFSET 0.019056 -0.420046 -0.034562
				CHANNELS 3 Zrotation Yrotation Xrotation
				JOINT rtoe
				{
					OFFSET -0.034840 -0.062106 0.130323
					CHANNELS 3 Zrotation Yrotation Xrotation
					End Site
					{
						OFFSET 0.000000 0.000000 0.000000
					}
				}
			}
		}
	}
	JOINT lowerback
	{
		OFFSET 0.004439 0.124404 -0.038385
		CHANNELS 3 Zrotation Yrotation Xrotation
		JOINT upperback
		{
			OFFSET 0.004488 0.137956 0.026820
			CHANNELS 3 Zrotation Yrotation Xrotation
			JOINT chest
			{
				OFFSET -0.002265 0.056032 0.002855
				CHANNELS 3 Zrotation Yrotation Xrotation
				JOINT lowerneck
				{
					OFFSET -0.013390 0.211636 -0.033468
					CHANNELS 3 Zrotation Yrotation Xrotation
					JOINT upperneck
					{
						OFFSET 0.010113 0.088937 0.050410
						CHANNELS 3 Zrotation Yrotation Xrotation
						End Site
						{
							OFFSET 0.000000 0.000000 0.000000
						}
					}
				}
				JOINT lclavicle
				{
					OFFSET 0.071702 0.114000 -0.018898
					CHANNELS 3 Zrotation Yrotation Xrotation
					JOINT lshoulder
					{
						OFFSET 0.122921 0.045205 -0.019046
						CHANNELS 3 Zrotation Yrotation Xrotation
						JOINT lelbow
						{
							OFFSET 0.255332 -0.015649 -0.022946
							CHANNELS 3 Zrotation Yrotation Xrotation
							JOINT lwrist
							{
								OFFSET 0.265709 0.012698 -0.007375
								CHANNELS 3 Zrotation Yrotation Xrotation
								End Site
								{
									OFFSET 0.000000 0.000000 0.000000
								}
							}
						}
					}
				}
				JOINT rclavicle
				{
					OFFSET -0.082954 0.112472 -0.023707
					CHANNELS 3 Zrotation Yrotation Xrotation
					JOINT rshoulder
					{
						OFFSET -0.113228 0.046853 -0.008472
						CHANNELS 3 Zrotation Yrotation Xrotation
						JOINT relbow
						{
							OFFSET -0.260127 -0.014369 -0.031269
							CHANNELS 3 Zrotation Yrotation Xrotation
							JOINT rwrist
							{
								OFFSET -0.269108 0.006794 -0.006027
								CHANNELS 3 Zrotation Yrotation Xrotation
								End Site
								{
									OFFSET 0.000000 0.000000 0.000000
								}
							}
						}
					}
				}
			}
		}
	}
}
MOTION
Frames: 14
Frame Time: 0.033333
1.191698 1.503930 1.362784 -5.512683 -0.141886 85.494191 -2.500239 -1.018541 -3.501146 -3.005870 -9.966247 10.667226 4.034148 9.719592 -9.481423 0.000000 -0.000000 0.000000 1.631048 1.701704 -15.458362 0.779012 -4.184779 34.413248 4.293875 -5.200291 -16.904233 0.000000 -0.000000 0.000000 0.710554 -1.906459 21.739439 1.412790 -0.414916 -1.653141 -0.421580 -0.563931 3.232074 0.652229 7.287699 8.759657 -4.283144 1.375289 17.730074 -25.665719 2.769139 5.210352 -54.643254 -5.979460 8.403833 11.386851 -33.465579 -0.537863 -2.806606 -4.047283 -9.608166 27.534606 4.034481 4.569750 54.992712 8.963054 14.003692 -16.099077 29.595715 -10.405145 3.614633 4.637856 -8.107885 
1.190023 1.495234 1.361209 -4.688677 -0.440209 85.553455 -2.811438 -1.220578 -3.097802 -3.049821 -10.059779 10.834470 4.427185 9.327659 -9.647532 0.000000 -0.000000 0.000000 1.613232 2.135858 -14.829685 1.381787 -2.379802 29.317409 5.160174 -4.180228 -15.794628 0.000000 -0.000000 0.000000 0.446375 -1.888593 20.934503 1.729415 -0.756957 -1.560931 -0.335528 -1.074120 3.349584 0.905672 7.333388 8.574062 -4.291245 1.039157 18.365699 -26.085938 2.832695 4.882989 -54.478912 -6.902152 8.735786 11.606211 -32.790100 -1.102890 -2.821932 -4.369581 -8.649011 27.980145 3.212239 3.957692 54.901483 8.758949 14.113242 -16.334670 28.217540 -11.009563 3.823496 4.384904 -8.201886 
1.187531 1.485443 1.360029 -4.546886 -0.428608 85.552876 -2.657014 -1.350995 -2.495127 -3.164789 -10.137706 10.914245 4.631242 9.094141 -9.568825 0.000000 -0.000000 0.000000 2.191247 2.145285 -14.173075 1.182113 -0.806556 25.893890 5.580515 -3.177987 -13.227885 0.000000 -0.000000 0.000000 0.584490 -1.735702 20.107259 1.905798 -0.991415 -1.261956 -0.251241 -1.104687 3.362443 0.596856 7.095577 8.796194 -4.272967 0.836352 18.425185 -26.328937 2.867406 4.645185 -54.791211 -7.422855 9.008606 11.975070 -32.668117 -1.267004 -2.266810 -4.397037 -8.705900 28.202798 2.863590 4.258630 54.998946 8.776101 13.987798 -16.472229 26.537004 -11.368078 3.011589 4.156957 -8.090239 
1.184388 1.470772 1.359363 -4.647604 -0.861020 85.325130 -2.976121 -1.219841 -1.098007 -3.213994 -10.027014 10.392643 5.062831 8.858682 -9.841789 0.000000 -0.000000 0.000000 2.349185 0.953709 -12.928707 0.992823 -0.450038 23.674314 4.307252 -3.317016 -8.154009 0.000000 -0.000000 0.000000 0.714997 -1.365518 19.032301 1.754833 -0.865291 -0.897508 -0.341002 -1.140447 3.356236 0.491778 6.442089 9.415601 -4.259974 1.231619 18.652381 -26.439493 3.425883 4.518419 -55.315662 -8.151321 9.065922 12.311267 -32.871660 -1.143285 -2.702457 -4.617216 -9.379993 28.303888 2.281799 4.185398 55.636592 8.708400 13.766462 -16.147464 23.455755 -11.967770 3.523175 3.397236 -8.812291 
1.183174 1.460779 1.359245 -4.607869 -1.321825 85.035143 -3.579196 -1.169699 0.283912 -2.943612 -10.258540 9.595978 5.100633 9.121435 -9.923822 0.000000 -0.000000 0.000000 2.325141 0.920085 -11.576099 0.309960 -0.448098 23.042585 3.620502 -4.131592 -8.477896 0.000000 -0.000000 0.000000 0.635820 -1.400655 18.353502 1.657568 -0.668875 -0.605059 -0.406524 -1.062651 3.347855 0.359313 6.147621 10.110265 -4.306471 1.231397 18.780029 -26.564042 3.532949 4.809686 -55.514121 -8.288103 9.123330 12.587380 -33.327917 -0.962877 -3.491419 -4.615751 -9.608018 28.346728 2.320635 4.405465 55.821365 8.442999 13.483741 -16.015301 21.553489 -12.147814 4.129871 3.129148 -8.770176 
1.180574 1.447913 1.359685 -4.488166 -1.684528 84.565926 -3.905335 -1.097404 2.215270 -2.639963 -10.638590 8.515625 4.676973 9.226749 -9.981171 0.000000 -0.000000 0.000000 2.131395 1.502856 -9.226980 0.218330 -0.092468 21.501572 3.408362 -4.136285 -8.675054 0.000000 -0.000000 0.000000 0.770092 -1.648619 17.729902 1.528264 -0.496270 -0.307222 -0.581711 -0.712437 3.371409 0.458096 5.907265 10.836805 -4.446046 1.139646 18.950487 -26.649635 3.890574 4.870493 -55.951317 -8.370049 9.335365 12.577402 -33.771613 -0.619996 -3.732385 -4.755323 -9.855857 28.418793 2.296546 4.601766 55.842384 8.027163 13.354713 -15.215720 19.488624 -11.720241 4.754172 2.856868 -8.578605 
1.176597 1.435655 1.361029 -4.354678 -1.176298 84.391267 -3.196854 -1.050660 3.577998 -2.610911 -10.783869 7.924309 4.332372 9.548029 -10.444711 0.000000 -0.000000 0.000000 2.332135 2.044513 -7.483569 1.061004 -0.818891 20.424474 3.242154 -3.934826 -9.234608 0.000000 -0.000000 0.000000 1.780942 -1.714038 16.896031 1.567402 -0.252407 -0.005622 -0.710348 -0.644388 3.329966 0.382773 5.657581 11.719508 -4.490599 1.154515 18.965935 -26.835867 4.127710 4.945424 -56.463136 -8.267778 9.598650 12.622451 -34.027587 -0.170771 -4.131679 -4.871686 -9.919209 28.567630 2.221175 4.883759 55.626888 7.663499 13.069067 -14.464332 17.924409 -11.106903 5.386544 2.753984 -8.252490 
1.173377 1.424370 1.362154 -4.441994 -1.160702 84.279706 -3.167500 -1.006134 4.174471 -2.379527 -10.917794 8.823810 4.356275 9.338028 -11.525857 0.000000 -0.000000 0.000000 2.250067 1.574539 -5.545010 1.516076 -0.479249 18.760113 3.358251 -3.296714 -9.332903 0.000000 -0.000000 0.000000 2.309143 -1.467429 16.249706 1.576086 -0.154093 0.307841 -0.717900 -0.425683 3.146188 0.067569 5.203556 12.119614 -4.384034 1.133056 18.718083 -27.091315 4.090247 5.146073 -56.961845 -7.973776 9.689147 12.538006 -34.204358 0.444082 -4.552662 -4.681230 -9.760272 28.472118 2.177740 5.213217 55.634224 7.214859 12.701494 -13.996047 17.275621 -10.694454 5.730802 2.480059 -8.062602 
1.169501 1.413333 1.362163 -4.050082 -0.904603 84.207214 -2.854174 -1.315719 3.539564 -2.727536 -10.346437 11.729620 4.351884 9.340822 -12.953848 0.000000 -0.000000 0.000000 2.486066 1.111334 -3.989365 1.955983 -0.203467 17.727875 3.103846 -3.157403 -9.734208 0.000000 -0.000000 0.000000 2.802127 -1.214787 15.587934 1.769311 -0.376326 0.390506 -0.616236 -0.508858 3.200508 0.038020 4.773675 12.335121 -4.288960 1.137685 18.780132 -27.094865 4.166602 5.438815 -57.548723 -7.654854 9.732515 12.033430 -34.375510 1.400617 -4.846033 -4.485064 -9.781778 28.341109 2.080625 5.431695 55.457826 6.800016 12.582008 -13.393069 17.317112 -9.644906 5.984432 2.309920 -7.915053 
1.164580 1.402075 1.360527 -3.519607 -0.501960 83.713883 -2.298999 -2.202697 0.953597 -4.134463 -9.132392 18.991040 3.778750 9.828196 -13.373408 0.000000 -0.000000 0.000000 2.859654 1.086695 -2.415725 2.574341 -0.449400 17.527926 2.626461 -2.745304 -10.812062 0.000000 -0.000000 0.000000 3.110536 -0.912296 16.095926 2.206375 -0.764964 0.001140 -0.253647 -0.582398 3.323347 -0.032358 4.590719 11.873351 -4.291582 1.130379 19.177394 -27.271933 4.025587 5.323081 -57.942210 -7.078804 10.037716 11.248576 -34.456793 2.760249 -4.714565 -4.621400 -9.910392 28.376856 2.200268 5.543022 54.958720 6.718926 12.413648 -13.126308 17.806615 -8.886213 5.659220 2.442835 -7.999480 
1.161237 1.392507 1.358911 -2.832081 -0.571929 82.957650 -2.092679 -2.595292 -2.224715 -5.348080 -6.572336 27.169260 2.639842 9.078392 -12.130322 0.000000 -0.000000 0.000000 2.956973 0.453365 -0.663082 2.559170 0.205417 17.213449 2.070691 -2.513899 -11.674035 0.000000 -0.000000 0.000000 2.946007 -0.330971 16.751619 2.543645 -1.257649 -0.075050 -0.050866 -0.828553 3.430110 0.105035 4.148151 11.564998 -4.078322 0.862442 19.291965 -27.403881 3.813188 5.366660 -57.861452 -6.851066 10.037535 10.788057 -34.464304 4.267269 -5.858011 -4.452739 -8.854016 28.565019 2.104127 5.195971 54.539426 6.743417 12.258637 -13.009078 18.398616 -8.652317 5.677444 2.557401 -8.086901 
1.158404 1.382836 1.357876 -2.352824 -0.697949 82.147953 -1.817620 -3.298819 -5.990699 -6.363313 -4.364581 35.920189 1.206463 7.897316 -7.977725 0.000000 -0.000000 0.000000 2.977960 -0.457754 0.971158 2.434532 0.466421 16.995645 0.950945 -2.511361 -12.296258 0.000000 -0.000000 0.000000 2.784052 0.414955 17.457216 2.947367 -1.742159 0.007135 0.113753 -0.883790 3.346359 -0.015934 3.454034 11.688828 -3.891586 0.670024 19.076133 -27.840777 3.538201 5.392260 -57.500607 -6.697018 9.996747 10.346814 -34.203996 5.206462 -6.842632 -4.271509 -8.266033 28.806378 1.923620 4.868920 54.400699 6.837172 11.880903 -13.762928 19.035903 -8.990400 5.607650 2.580673 -8.518399 
1.155984 1.372681 1.356997 -2.314210 -0.909234 81.461995 -1.301086 -3.747542 -10.562261 -6.867386 -1.312232 44.754166 -0.691329 6.687735 -0.521456 0.000000 -0.000000 0.000000 2.809320 -1.273874 2.497640 2.400545 0.684388 16.641902 -0.280547 -2.191892 -12.677288 0.000000 -0.000000 0.000000 2.610374 1.217216 17.787736 3.209150 -2.092078 0.410564 0.117397 -0.721716 3.279792 -0.213118 3.045602 12.030273 -3.383716 0.652036 18.685045 -28.026310 3.432767 5.564548 -57.142843 -6.504851 10.003606 10.410929 -34.167232 6.014899 -7.928040 -3.965360 -7.184001 28.799233 1.840287 4.930986 54.438572 7.359719 11.417039 -14.112682 19.603546 -9.390162 5.884047 2.578619 -8.883544 
1.153364 1.361695 1.356925 -3.089542 -1.133712 80.784167 -0.347786 -3.982617 -15.071261 -7.082915 2.208404 52.375675 -2.610117 6.015983 6.908919 0.000000 -0.000000 0.000000 2.710158 -1.717871 4.005042 2.172357 1.206432 16.324366 -1.493630 -1.529535 -13.304577 0.000000 -0.000000 0.000000 2.516652 2.285282 18.130640 3.347428 -2.186075 0.705423 -0.014764 -0.289731 3.158506 -0.464088 2.542468 12.595234 -2.756602 0.468527 18.537795 -28.216714 3.495340 5.681852 -56.832188 -6.154665 9.955119 10.377937 -33.854196 6.068903 -8.326309 -3.824179 -6.769724 28.858091 1.897571 5.270629 54.517010 7.732260 11.017544 -14.774239 20.293001 -10.362577 5.770140 2.803254 -9.874054 
